# xmcd
#
# Track frame offsets:
#	150
#	10125
#	21975
#	34275
#	49425
#	63975
#	82725
#	98775
#	108600
#	124500
#	138487
#	152550
#	165262
#	175387
#
# Disc length: 2525 seconds
#
# Revision: 1
# Processed by: cddbd v1.5.1PL0 Copyright (c) Steve Scherf et al.
# Submitted via: CDex 1.50Beta5
#
DISCID=af09db0e
DTITLE=Various Artist - Guitarras Magicas
DYEAR=1900
DGENRE=tango
TTITLE0=Tacunau/エル・エントレリアーノ
TTITLE1=エル・チョクロ
TTITLE2=7月9日
TTITLE3=白いスカーフ
TTITLE4=エル・フィルレーテ
TTITLE5=タンゴ・メドレー
TTITLE6=マレーナ
TTITLE7=ア・メディア・ルス
TTITLE8=インスピラシオン
TTITLE9=ノクトゥルナ
TTITLE10=靴音高く
TTITLE11=オテル・ビクトリア
TTITLE12=オホス・ネグロス
TTITLE13=ラ・マリポーサ
EXTD=
EXTT0=
EXTT1=
EXTT2=
EXTT3=
EXTT4=
EXTT5=
EXTT6=
EXTT7=
EXTT8=
EXTT9=
EXTT10=
EXTT11=
EXTT12=
EXTT13=
PLAYORDER=
